Coordinates
version=1
nRows=58
nColumns=11
inDegrees=yes

Units are S.I. units (second, meters, Newtons, ...)
If the header above contains a line with 'inDegrees', this indicates whether rotational values are in degrees (yes) or radians (no).

endheader
time	pelvis_tilt	pelvis_tx	pelvis_ty	hip_flexion_l	hip_flexion_r	knee_angle_l	knee_angle_r	ankle_angle_l	ankle_angle_r	lumbar
     34.30000000	     13.03108876	     -0.06580969	      0.73091104	     61.32713350	     61.32713350	    -73.35713744	    -73.35713744	     -2.29198774	     -2.29198774	    -39.13686670
     34.31000000	     12.85508825	     -0.06528873	      0.73105108	     61.43924194	     61.43924194	    -73.34547136	    -73.34547136	     -2.28424448	     -2.28424448	    -39.48503486
     34.32000000	     12.66961704	     -0.06474252	      0.73118454	     61.55800655	     61.55800655	    -73.32508739	    -73.32508739	     -2.27394145	     -2.27394145	    -39.83727165
     34.33000000	     12.47275897	     -0.06414497	      0.73130543	     61.68310056	     61.68310056	    -73.29135693	    -73.29135693	     -2.26152507	     -2.26152507	    -40.19513895
     34.34000000	     12.26322578	     -0.06351474	      0.73141539	     61.81556015	     61.81556015	    -73.24259753	    -73.24259753	     -2.24718152	     -2.24718152	    -40.55807241
     34.35000000	     12.03467173	     -0.06283943	      0.73150396	     61.95841130	     61.95841130	    -73.17437087	    -73.17437087	     -2.22984215	     -2.22984215	    -40.91845483
     34.36000000	     11.52096875	     -0.06208504	      0.73097612	     62.42207972	     62.42207972	    -73.08456291	    -73.08456291	     -2.14560311	     -2.14560311	    -40.95463736
     34.37000000	     11.29768913	     -0.06136910	      0.73106555	     62.56521869	     62.56521869	    -73.03222708	    -73.03222708	     -2.13500653	     -2.13500653	    -41.36238242
     34.38000000	     11.03805477	     -0.06061790	      0.73113567	     62.72684490	     62.72684490	    -72.94630209	    -72.94630209	     -2.11913714	     -2.11913714	    -41.75137523
     34.39000000	     10.38696752	     -0.05978286	      0.73036499	     63.33982409	     63.33982409	    -72.85094585	    -72.85094585	     -2.05664356	     -2.05664356	    -41.69243414
     34.40000000	     10.13760632	     -0.05897036	      0.73048989	     63.50001710	     63.50001710	    -72.80210992	    -72.80210992	     -2.04434684	     -2.04434684	    -42.13802129
     34.41000000	      9.52690110	     -0.05803804	      0.72987276	     64.05698910	     64.05698910	    -72.72248558	    -72.72248558	     -1.95566513	     -1.95566513	    -42.16887156
     34.42000000	      9.26095042	     -0.05710465	      0.73006809	     64.22288553	     64.22288553	    -72.67731774	    -72.67731774	     -1.94153500	     -1.94153500	    -42.63799442
     34.43000000	      8.95294741	     -0.05609438	      0.73026080	     64.41187649	     64.41187649	    -72.60382098	    -72.60382098	     -1.91682994	     -1.91682994	    -43.07943268
     34.44000000	      8.17828253	     -0.05495453	      0.72938266	     65.15259558	     65.15259558	    -72.55112137	    -72.55112137	     -1.72211437	     -1.72211437	    -42.97404306
     34.45000000	      7.88826629	     -0.05381297	      0.72967789	     65.32502994	     65.32502994	    -72.50602815	    -72.50602815	     -1.70643465	     -1.70643465	    -43.47672960
     34.46000000	      7.23479014	     -0.05255757	      0.72921428	     65.89092928	     65.89092928	    -72.42495062	    -72.42495062	     -1.53502464	     -1.53502464	    -43.56059067
     34.47000000	      6.92154941	     -0.05128858	      0.72954428	     66.07044694	     66.07044694	    -72.36982857	    -72.36982857	     -1.51639210	     -1.51639210	    -44.07856841
     34.48000000	      6.22020046	     -0.04994194	      0.72906826	     66.66828610	     66.66828610	    -72.26595895	    -72.26595895	     -1.32328999	     -1.32328999	    -44.14975864
     34.49000000	      5.66053732	     -0.04855370	      0.72891331	     67.10657347	     67.10657347	    -72.18591873	    -72.18591873	     -1.19012945	     -1.19012945	    -44.40933441
     34.50000000	      5.08716504	     -0.04710399	      0.72877531	     67.54631943	     67.54631943	    -72.09258061	    -72.09258061	     -1.06245644	     -1.06245644	    -44.66838657
     34.51000000	      4.46999646	     -0.04561440	      0.72854126	     68.03457547	     68.03457547	    -72.00727770	    -72.00727770	     -0.92045242	     -0.92045242	    -44.89400439
     34.52000000	      3.83893421	     -0.04408322	      0.72830835	     68.53105941	     68.53105941	    -71.91769164	    -71.91769164	     -0.78110809	     -0.78110809	    -45.12219714
     34.53000000	      3.16147116	     -0.04248177	      0.72799630	     69.07629520	     69.07629520	    -71.83284416	    -71.83284416	     -0.62724848	     -0.62724848	    -45.30690923
     34.54000000	      2.45688995	     -0.04080139	      0.72765286	     69.64848337	     69.64848337	    -71.75435091	    -71.75435091	     -0.46726382	     -0.46726382	    -45.47232594
     34.55000000	      1.73136119	     -0.03903285	      0.72730069	     70.24074335	     70.24074335	    -71.68344892	    -71.68344892	     -0.30221093	     -0.30221093	    -45.62347704
     34.56000000	      0.98283640	     -0.03717343	      0.72694041	     70.85429472	     70.85429472	    -71.62029934	    -71.62029934	     -0.12820756	     -0.12820756	    -45.75640328
     34.57000000	      0.21539224	     -0.03520704	      0.72658783	     71.48221230	     71.48221230	    -71.56088141	    -71.56088141	      0.04823647	      0.04823647	    -45.87776835
     34.58000000	     -0.57341718	     -0.03313805	      0.72623803	     72.12767125	     72.12767125	    -71.50473221	    -71.50473221	      0.23444608	      0.23444608	    -45.98500682
     34.59000000	     -1.38398678	     -0.03096601	      0.72590289	     72.78587736	     72.78587736	    -71.44788750	    -71.44788750	      0.42249003	      0.42249003	    -46.07656008
     34.60000000	     -2.22366394	     -0.02872393	      0.72553804	     73.47405322	     73.47405322	    -71.39286094	    -71.39286094	      0.62610939	      0.62610939	    -46.14376814
     34.61000000	     -3.07835472	     -0.02634765	      0.72525247	     74.15680537	     74.15680537	    -71.33029633	    -71.33029633	      0.82718649	      0.82718649	    -46.21438384
     34.62000000	     -3.97016729	     -0.02388902	      0.72491666	     74.87571856	     74.87571856	    -71.27255308	    -71.27255308	      1.05031178	      1.05031178	    -46.24567117
     34.63000000	     -4.88328540	     -0.02134790	      0.72460327	     75.60748783	     75.60748783	    -71.21176667	    -71.21176667	      1.28328790	      1.28328790	    -46.26573100
     34.64000000	     -5.82802929	     -0.01871897	      0.72431098	     76.35527936	     76.35527936	    -71.13676156	    -71.13676156	      1.52573477	      1.52573477	    -46.25878055
     34.65000000	     -6.79799189	     -0.01598709	      0.72405191	     77.11128047	     77.11128047	    -71.04932201	    -71.04932201	      1.77205682	      1.77205682	    -46.23072572
     34.66000000	     -7.79799018	     -0.01318945	      0.72383887	     77.88024967	     77.88024967	    -70.94244244	    -70.94244244	      2.02273453	      2.02273453	    -46.17807824
     34.67000000	     -8.82420498	     -0.01031330	      0.72368680	     78.65594454	     78.65594454	    -70.81833938	    -70.81833938	      2.27325271	      2.27325271	    -46.10202520
     34.68000000	     -9.87000025	     -0.00734489	      0.72361260	     79.43102412	     79.43102412	    -70.67065149	    -70.67065149	      2.51225687	      2.51225687	    -46.00568086
     34.69000000	    -10.93232994	     -0.00429487	      0.72363733	     80.19905888	     80.19905888	    -70.50041470	    -70.50041470	      2.73232487	      2.73232487	    -45.89196885
     34.70000000	    -12.00991044	     -0.00115565	      0.72377122	     80.95602729	     80.95602729	    -70.30424963	    -70.30424963	      2.93568647	      2.93568647	    -45.75653383
     34.71000000	    -13.08873414	      0.00206931	      0.72404006	     81.69004916	     81.69004916	    -70.08575612	    -70.08575612	      3.11553025	      3.11553025	    -45.61522633
     34.72000000	    -14.16193075	      0.00538663	      0.72444936	     82.39196098	     82.39196098	    -69.84471501	    -69.84471501	      3.27570775	      3.27570775	    -45.46837930
     34.73000000	    -15.24101134	      0.00878599	      0.72498204	     83.07366175	     83.07366175	    -69.58191038	    -69.58191038	      3.41476708	      3.41476708	    -45.30570843
     34.74000000	    -16.28277886	      0.01228457	      0.72563680	     83.70480935	     83.70480935	    -69.31502501	    -69.31502501	      3.54299165	      3.54299165	    -45.14574971
     34.75000000	    -17.32205975	      0.01586723	      0.72641274	     84.30742442	     84.30742442	    -69.03623257	    -69.03623257	      3.66926562	      3.66926562	    -44.97034852
     34.76000000	    -18.33809667	      0.01952179	      0.72727825	     84.87359682	     84.87359682	    -68.75397989	    -68.75397989	      3.80015724	      3.80015724	    -44.77942277
     34.77000000	    -19.32571195	      0.02324832	      0.72823260	     85.39873928	     85.39873928	    -68.47144140	    -68.47144140	      3.94031012	      3.94031012	    -44.57431785
     34.78000000	    -20.26744857	      0.02702557	      0.72928056	     85.87043376	     85.87043376	    -68.19659868	    -68.19659868	      4.09653213	      4.09653213	    -44.36571176
     34.79000000	    -21.15871085	      0.03084754	      0.73043180	     86.28563528	     86.28563528	    -67.92657415	    -67.92657415	      4.27421747	      4.27421747	    -44.16048939
     34.80000000	    -21.98525179	      0.03468449	      0.73178399	     86.60080163	     86.60080163	    -67.61010181	    -67.61010181	      4.45584958	      4.45584958	    -43.97214929
     34.81000000	    -22.74431154	      0.03855099	      0.73300551	     86.91823689	     86.91823689	    -67.42529731	    -67.42529731	      4.67775049	      4.67775049	    -43.76621182
     34.82000000	    -23.42813121	      0.04242624	      0.73439530	     87.13853308	     87.13853308	    -67.21159150	    -67.21159150	      4.91648635	      4.91648635	    -43.58049299
     34.83000000	    -24.04635894	      0.04627941	      0.73586842	     87.29996296	     87.29996296	    -67.01781115	    -67.01781115	      5.19430371	      5.19430371	    -43.39497598
     34.84000000	    -24.58195090	      0.05014553	      0.73734962	     87.40015768	     87.40015768	    -66.85862735	    -66.85862735	      5.49005885	      5.49005885	    -43.21865482
     34.85000000	    -24.97215897	      0.05406232	      0.73917402	     87.32759544	     87.32759544	    -66.66099060	    -66.66099060	      5.58118972	      5.58118972	    -43.14746402
     34.86000000	    -25.46549383	      0.05785566	      0.74045265	     87.43291821	     87.43291821	    -66.57538134	    -66.57538134	      6.07674306	      6.07674306	    -42.82377292
     34.87000000	    -25.76304886	      0.06172799	      0.74217543	     87.31862319	     87.31862319	    -66.46701210	    -66.46701210	      6.44214574	      6.44214574	    -42.67707650
